<svg xmlns="http://www.w3.org/2000/svg" viewBox="0 0 512 512"><path d="M67.134 112.862v214.735a64.387 64.387 0 0023.504 49.747l134.996 110.93c29.831 24.513 73.736 20.834 99.078-8.302 26.431-30.388 22.511-76.63-8.658-102.129l-56.151-45.935a64.389 64.389 0 01-23.613-49.836v-169.21H67.134z" fill="#3f9cef"/><path d="M120.938 402.244l-30.3-24.896a64.391 64.391 0 01-23.505-49.753v-79.562c34.602 13.289 97.974 52.514 53.805 154.211z" fill="#e8eae9"/><path d="M120.938 402.244l-19.903-16.361c23.465-68.185-4.703-105.139-33.902-124.452v-13.399c34.602 13.29 97.974 52.515 53.805 154.212z" fill="#d6d4d4"/><path d="M342.243 433.144c0 16.601-5.754 33.292-17.532 46.831-17.271 19.853-43.158 27.888-67.334 23.225 15.14-2.902 29.439-10.717 40.317-23.225 11.778-13.539 17.532-30.23 17.532-46.831 0-20.654-8.906-41.157-26.187-55.296l-56.157-45.94a64.396 64.396 0 01-23.605-49.833V112.864h27.018v169.211a64.399 64.399 0 0023.605 49.833l56.157 45.94c17.28 14.139 26.186 34.643 26.186 55.296z" fill="#efc203"/><path d="M250.748 112.363H51.179a5.003 5.003 0 01-5.003-5.003V12.508a5.003 5.003 0 015.003-5.003h199.568a5.003 5.003 0 015.003 5.003v94.851a5.002 5.002 0 01-5.002 5.004z" fill="#ffd527"/><path d="M255.746 12.508v94.852c0 2.763-2.75 5.003-6.143 5.003h-39.718V7.505h39.718c3.393 0 6.143 2.24 6.143 5.003z" fill="#2384cc"/><path d="M190.711 112.862v214.735a64.387 64.387 0 0023.504 49.747l134.996 110.93c29.831 24.513 73.736 20.834 99.078-8.302 26.431-30.388 22.511-76.63-8.658-102.129l-56.151-45.935a64.389 64.389 0 01-23.613-49.836v-169.21H190.711z" fill="#3f9cef"/><path d="M244.515 402.244l-30.3-24.896a64.391 64.391 0 01-23.505-49.753v-79.562c34.603 13.289 97.974 52.514 53.805 154.211z" fill="#e8eae9"/><path d="M244.515 402.244l-19.903-16.361c23.465-68.185-4.703-105.139-33.902-124.452v-13.399c34.603 13.29 97.974 52.515 53.805 154.212z" fill="#d6d4d4"/><path d="M465.821 433.144c0 16.601-5.754 33.292-17.532 46.831-17.271 19.853-43.158 27.888-67.334 23.225 15.14-2.902 29.439-10.717 40.317-23.225 11.778-13.539 17.532-30.23 17.532-46.831 0-20.654-8.906-41.157-26.187-55.296l-56.157-45.94a64.396 64.396 0 01-23.605-49.833V112.864h27.018v169.211a64.399 64.399 0 0023.605 49.833l56.157 45.94c17.28 14.139 26.186 34.643 26.186 55.296z" fill="#2384cc"/><path d="M374.325 112.363H174.757a5.003 5.003 0 01-5.003-5.003V12.508a5.003 5.003 0 015.003-5.003h199.568a5.003 5.003 0 015.003 5.003v94.851a5.003 5.003 0 01-5.003 5.004z" fill="#ffd527"/><path d="M379.324 12.508v94.852c0 2.763-2.75 5.003-6.143 5.003h-39.718V7.505h39.718c3.393 0 6.143 2.24 6.143 5.003z" fill="#efc203"/><path d="M473.038 426.436c-1.82-21.454-11.997-40.774-28.656-54.402a7.506 7.506 0 00-9.505 11.618c13.489 11.035 21.73 26.68 23.204 44.053 1.475 17.376-4.014 34.189-15.455 47.342-22.831 26.251-61.774 29.516-88.651 7.429l-100.379-82.485c15.687-38.511 17.743-72.103 6.08-99.905-12.923-30.804-39.629-47.903-61.46-57.115V120.367H352.363v161.705c0 21.656 9.61 41.938 26.365 55.645l15.856 12.971a7.505 7.505 0 0010.561-1.057 7.505 7.505 0 00-1.056-10.561l-15.856-12.971c-13.257-10.845-20.859-26.892-20.859-44.027V119.868h6.952c6.897 0 12.508-5.611 12.508-12.508V12.508C386.833 5.611 381.222 0 374.325 0H51.179c-6.897 0-12.508 5.611-12.508 12.508v94.851c0 6.897 5.611 12.508 12.508 12.508h8.45v19.565a7.505 7.505 0 1015.01 0v-19.065h108.567v207.229c0 21.595 9.566 41.84 26.244 55.545l30.149 24.774.056.046 80.309 65.993c-.303.365-.603.732-.916 1.092-22.832 26.251-61.774 29.515-88.65 7.429L130.019 399.99c15.687-38.511 17.743-72.103 6.08-99.905-12.923-30.804-39.629-47.903-61.46-57.115v-49.513a7.505 7.505 0 10-15.01 0v134.139c0 21.595 9.566 41.84 26.244 55.545l30.149 24.774.056.046 104.791 86.11C235.082 505.752 252.6 512 270.8 512c2.218 0 4.449-.093 6.683-.28 20.561-1.723 39.345-11.249 52.891-26.823.405-.466.785-.947 1.178-1.42l12.894 10.595C358.66 505.752 376.177 512 394.377 512c2.218 0 4.449-.093 6.683-.28 20.561-1.723 39.345-11.249 52.892-26.823 14.128-16.243 20.907-37.005 19.086-58.461zM198.651 15.01h173.172v89.848H177.258V15.01h21.393zm-144.97 89.848V15.01h108.567v89.848H53.681zm187.736 285.124l-22.437-18.437c-13.195-10.844-20.764-26.862-20.764-43.949v-68.174c17.845 8.528 37.724 22.88 47.619 46.469 9.649 23 8.15 51.256-4.418 84.091zm-123.578 0l-22.437-18.437c-13.195-10.844-20.764-26.862-20.764-43.949v-68.174c17.845 8.528 37.724 22.88 47.619 46.469 9.649 23 8.151 51.256-4.418 84.091z"/></svg>